<svg width="121" height="51" viewBox="0 0 121 51" fill="none" xmlns="http://www.w3.org/2000/svg">
<g clip-path="url(#clip0_4561_8964)">
<mask id="mask0_4561_8964" style="mask-type:luminance" maskUnits="userSpaceOnUse" x="0" y="0" width="119" height="51">
<path d="M118.135 0.251953H0V51.0002H118.135V0.251953Z" fill="white"/>
</mask>
<g mask="url(#mask0_4561_8964)">
<mask id="mask1_4561_8964" style="mask-type:luminance" maskUnits="userSpaceOnUse" x="0" y="0" width="25" height="51">
<path d="M24.9582 0.251953H0V51.0002H24.9582V0.251953Z" fill="white"/>
</mask>
<g mask="url(#mask1_4561_8964)">
<path d="M24.9582 0.251953H0V51.0002H24.9582V0.251953Z" fill="#19191B"/>
<path d="M19.9668 44.7501H7.83625V46.5627H4.95289L4.9529 39.8846H7.83625V41.6973H19.9668V44.7501ZM19.9668 39.1735H4.9529V36.2247H19.9668V39.1735ZM20.1033 31.4547C20.1033 32.559 19.7649 33.4494 19.0881 34.1259C18.4114 34.7966 17.4645 35.132 16.2474 35.132H9.32055C7.86468 35.132 6.75001 34.84 5.97657 34.256C5.20313 33.6663 4.81641 32.7093 4.81641 31.3853C4.81641 30.6626 4.94721 30.0208 5.20881 29.4599C5.47043 28.8933 5.86283 28.4481 6.38604 28.1243C6.90356 27.8005 7.55757 27.6386 8.3481 27.6386H10.9414V30.6742H8.72347C8.27415 30.6742 7.97274 30.7319 7.81919 30.8476C7.65994 30.9633 7.58033 31.1425 7.58033 31.3853C7.58033 31.6687 7.6827 31.8594 7.88743 31.9578C8.08648 32.056 8.35375 32.1052 8.68927 32.1052H16.2047C16.62 32.1052 16.9128 32.0444 17.0834 31.923C17.2541 31.7958 17.3393 31.6166 17.3393 31.3853C17.3393 31.1251 17.2341 30.943 17.0237 30.8389C16.8133 30.729 16.5403 30.6742 16.2047 30.6742H13.5005V27.604H16.3413C17.6606 27.604 18.6189 27.9422 19.2161 28.6187C19.8075 29.2952 20.1033 30.2405 20.1033 31.4547ZM19.9668 26.5805H4.9529V23.5625H10.967L4.9529 22.1401V19.0699L11.8286 20.7785L19.9668 18.7143V21.8799L12.6987 23.5451H19.9668V26.5805ZM19.9668 18.1853H4.9529V12.0797H7.8533V15.0804H10.7793V12.2011H13.6029V15.0804H17.0408V11.8802H19.9668V18.1853ZM19.9668 9.55586H7.83625V11.3685H4.9529V4.69043H7.83625V6.50305H19.9668V9.55586Z" fill="white"/>
</g>
<path d="M40.1414 48.8856C36.8309 48.8856 34.1618 47.8371 32.1339 45.7402C30.1234 43.6434 29.1182 40.7094 29.1182 36.9386V15.4763C29.1182 10.9654 29.9934 7.51162 31.7439 5.11518C33.5118 2.71873 36.3803 1.52051 40.3493 1.52051C42.5159 1.52051 44.4397 1.92579 46.1209 2.73635C47.8195 3.54691 49.154 4.76276 50.1246 6.38388C51.0952 7.98739 51.5805 10.0138 51.5805 12.4631V20.4983H42.4812V13.6261C42.4812 12.2341 42.3079 11.3001 41.9612 10.8244C41.6146 10.331 41.0773 10.0843 40.3493 10.0843C39.5001 10.0843 38.9281 10.4015 38.6335 11.0358C38.3388 11.6526 38.1915 12.4807 38.1915 13.5204V36.8065C38.1915 38.0928 38.3735 39.0002 38.7375 39.5289C39.1187 40.0575 39.6561 40.3218 40.3493 40.3218C41.1293 40.3218 41.6753 39.9958 41.9873 39.3439C42.3165 38.6918 42.4812 37.846 42.4812 36.8065V28.4277H51.6845V37.2294C51.6845 41.3174 50.6705 44.2865 48.6428 46.1367C46.6148 47.9693 43.7811 48.8856 40.1414 48.8856ZM65.1255 48.8856C61.3125 48.8856 58.5047 47.8019 56.7021 45.6345C54.8996 43.4495 53.9983 40.2425 53.9983 36.0134V1.94341H62.8897V35.6435C62.8897 36.4188 62.933 37.1676 63.0197 37.8901C63.1064 38.5949 63.3057 39.1764 63.6177 39.6346C63.9297 40.0928 64.4322 40.3218 65.1255 40.3218C65.8361 40.3218 66.3474 40.1016 66.6594 39.6611C66.9714 39.2029 67.1621 38.6126 67.2314 37.8901C67.3181 37.1676 67.3614 36.4188 67.3614 35.6435V1.94341H76.2527V36.0134C76.2527 40.2425 75.3514 43.4495 73.5489 45.6345C71.7464 47.8019 68.9386 48.8856 65.1255 48.8856ZM79.5545 48.4627V1.94341H88.7058V40.5333H98.1175V48.4627H79.5545ZM102.771 48.4627V10.8772H97.3372V1.94341H117.355V10.8772H111.922V48.4627H102.771Z" fill="black"/>
</g>
</g>
<defs>
<clipPath id="clip0_4561_8964">
<rect width="120.104" height="50.7483" fill="white" transform="translate(0 0.251953)"/>
</clipPath>
</defs>
</svg>
