<svg width="76" height="32" viewBox="0 0 76 32" fill="none" xmlns="http://www.w3.org/2000/svg">
<mask id="mask0_4383_40592" style="mask-type:luminance" maskUnits="userSpaceOnUse" x="0" y="0" width="76" height="32">
<path d="M75.7333 0H0V32H75.7333V0Z" fill="white"/>
</mask>
<g mask="url(#mask0_4383_40592)">
<mask id="mask1_4383_40592" style="mask-type:luminance" maskUnits="userSpaceOnUse" x="0" y="0" width="16" height="32">
<path d="M16 0H0V32H16V0Z" fill="white"/>
</mask>
<g mask="url(#mask1_4383_40592)">
<path d="M16 0H0V32H16V0Z" fill="white"/>
<path d="M12.8004 28.059H5.02383V29.202H3.17539L3.17539 24.991H5.02383V26.134H12.8004V28.059ZM12.8004 24.5426H3.17539V22.6832H12.8004V24.5426ZM12.8879 19.6754C12.8879 20.3718 12.6709 20.9332 12.2371 21.3598C11.8033 21.7827 11.1962 21.9942 10.416 21.9942H5.97538C5.04206 21.9942 4.32747 21.8101 3.83164 21.4418C3.33581 21.0699 3.08789 20.4665 3.08789 19.6317C3.08789 19.1759 3.17175 18.7712 3.33945 18.4176C3.50716 18.0603 3.75873 17.7795 4.09414 17.5754C4.42591 17.3712 4.84518 17.2691 5.35196 17.2691H7.01447V19.1832H5.5926C5.30456 19.1832 5.11133 19.2197 5.01289 19.2926C4.91081 19.3655 4.85977 19.4785 4.85977 19.6317C4.85977 19.8103 4.92539 19.9306 5.05664 19.9926C5.18425 20.0546 5.35559 20.0856 5.57068 20.0856H10.3887C10.6548 20.0856 10.8426 20.0473 10.952 19.9707C11.0613 19.8905 11.116 19.7775 11.116 19.6317C11.116 19.4676 11.0485 19.3527 10.9137 19.2871C10.7788 19.2178 10.6037 19.1832 10.3887 19.1832H8.65506V17.2473H10.4762C11.322 17.2473 11.9363 17.4606 12.3192 17.8871C12.6983 18.3137 12.8879 18.9098 12.8879 19.6754ZM12.8004 16.6019H3.17539V14.6989H7.03084L3.17539 13.8019V11.866L7.58322 12.9434L12.8004 11.6418V13.6379L8.14103 14.6879H12.8004V16.6019ZM12.8004 11.3082H3.17539V7.45821H5.03476V9.35037H6.91052V7.53479H8.72071V9.35037H10.9246V7.33245H12.8004V11.3082ZM12.8004 5.86679H5.02383V7.00978H3.17539V2.79883H5.02383V3.9418H12.8004V5.86679Z" fill="#19191B"/>
</g>
<path d="M25.7337 30.6665C23.6114 30.6665 21.9003 30.0053 20.6003 28.6831C19.3114 27.3609 18.667 25.5109 18.667 23.1331V9.5998C18.667 6.75537 19.2281 4.57758 20.3503 3.06647C21.4836 1.55536 23.3226 0.799805 25.867 0.799805C27.2559 0.799805 28.4892 1.05536 29.567 1.56647C30.6559 2.07758 31.5114 2.84425 32.1337 3.86647C32.7559 4.87758 33.067 6.15537 33.067 7.6998V12.7665H27.2337V8.43313C27.2337 7.55537 27.1226 6.96647 26.9003 6.66647C26.6781 6.35537 26.3337 6.1998 25.867 6.1998C25.3226 6.1998 24.9559 6.3998 24.767 6.7998C24.5781 7.18871 24.4836 7.71089 24.4836 8.36647V23.0498C24.4836 23.8609 24.6003 24.4331 24.8337 24.7665C25.0781 25.0998 25.4226 25.2665 25.867 25.2665C26.367 25.2665 26.717 25.0609 26.917 24.6498C27.1281 24.2387 27.2337 23.7053 27.2337 23.0498V17.7665H33.1337V23.3165C33.1337 25.8942 32.4836 27.7665 31.1837 28.9331C29.8836 30.0887 28.067 30.6665 25.7337 30.6665ZM41.7503 30.6665C39.3059 30.6665 37.5059 29.9831 36.3503 28.6164C35.1948 27.2387 34.617 25.2164 34.617 22.5498V1.06647H40.317V22.3165C40.317 22.8053 40.3447 23.2775 40.4003 23.7331C40.4559 24.1775 40.5837 24.5442 40.7837 24.8331C40.9837 25.122 41.3059 25.2665 41.7503 25.2665C42.2059 25.2665 42.5336 25.1276 42.7336 24.8498C42.9336 24.5609 43.0559 24.1887 43.1003 23.7331C43.1559 23.2775 43.1837 22.8053 43.1837 22.3165V1.06647H48.8836V22.5498C48.8836 25.2164 48.3059 27.2387 47.1503 28.6164C45.9948 29.9831 44.1948 30.6665 41.7503 30.6665ZM51.0003 30.3998V1.06647H56.867V25.3998H62.9006V30.3998H51.0003ZM65.8835 30.3998V6.6998H62.4003V1.06647H75.2334V6.6998H71.7502V30.3998H65.8835Z" fill="white"/>
</g>
</svg>
